<svg width="77" height="24" viewBox="0 0 77 24" fill="none" xmlns="http://www.w3.org/2000/svg">
<g id="clouds">
<g id="clouds-1" opacity="0.95">
<circle id="Ellipse 1" cx="40.6689" cy="20.8543" r="6.46154" transform="rotate(-3.84411 40.6689 20.8543)" fill="white"/>
<circle id="Ellipse 2" cx="49.6314" cy="16.5513" r="6.46154" transform="rotate(-3.84411 49.6314 16.5513)" fill="white"/>
<circle id="Ellipse 3" cx="50.1264" cy="23.9193" r="6.46154" transform="rotate(-3.84411 50.1264 23.9193)" fill="white"/>
<circle id="Ellipse 4" cx="57.7373" cy="17.8569" r="6.46154" transform="rotate(-3.84411 57.7373 17.8569)" fill="white"/>
<circle id="Ellipse 5" cx="61.2197" cy="23.7908" r="6.46154" transform="rotate(-3.84411 61.2197 23.7908)" fill="white"/>
<circle id="Ellipse 6" cx="67.685" cy="19.039" r="6.46154" transform="rotate(-3.84411 67.685 19.039)" fill="white"/>
</g>
<g id="clouds-2" opacity="0.95">
<circle id="Ellipse 1_2" cx="8.43513" cy="26.6557" r="6.46154" transform="rotate(-3.84411 8.43513 26.6557)" fill="white"/>
<circle id="Ellipse 2_2" cx="17.3975" cy="22.3528" r="6.46154" transform="rotate(-3.84411 17.3975 22.3528)" fill="white"/>
<circle id="Ellipse 3_2" cx="17.8928" cy="29.7208" r="6.46154" transform="rotate(-3.84411 17.8928 29.7208)" fill="white"/>
<circle id="Ellipse 4_2" cx="25.5035" cy="23.6585" r="6.46154" transform="rotate(-3.84411 25.5035 23.6585)" fill="white"/>
<circle id="Ellipse 5_2" cx="28.9859" cy="29.5922" r="6.46154" transform="rotate(-3.84411 28.9859 29.5922)" fill="white"/>
<circle id="Ellipse 6_2" cx="35.4514" cy="24.8403" r="6.46154" transform="rotate(-3.84411 35.4514 24.8403)" fill="white"/>
</g>
<g id="clouds-3" opacity="0.6">
<circle id="Ellipse 1_3" cx="46.2738" cy="12.5009" r="6.46154" transform="rotate(-3.84411 46.2738 12.5009)" fill="white"/>
<circle id="Ellipse 2_3" cx="55.2362" cy="8.19801" r="6.46154" transform="rotate(-3.84411 55.2362 8.19801)" fill="white"/>
<circle id="Ellipse 3_3" cx="55.7314" cy="15.5659" r="6.46154" transform="rotate(-3.84411 55.7314 15.5659)" fill="white"/>
<circle id="Ellipse 4_3" cx="63.3419" cy="9.50367" r="6.46154" transform="rotate(-3.84411 63.3419 9.50367)" fill="white"/>
<circle id="Ellipse 5_3" cx="66.8245" cy="15.4374" r="6.46154" transform="rotate(-3.84411 66.8245 15.4374)" fill="white"/>
<circle id="Ellipse 6_3" cx="73.2896" cy="10.6856" r="6.46154" transform="rotate(-3.84411 73.2896 10.6856)" fill="white"/>
</g>
<g id="clouds-4" opacity="0.6">
<circle id="Ellipse 1_4" cx="18.9725" cy="22.7871" r="6.46154" transform="rotate(-4.59401 18.9725 22.7871)" fill="white"/>
<circle id="Ellipse 2_4" cx="27.8779" cy="18.3673" r="6.46154" transform="rotate(-4.59401 27.8779 18.3673)" fill="white"/>
<circle id="Ellipse 3_4" cx="28.4693" cy="25.7282" r="6.46154" transform="rotate(-4.59401 28.4693 25.7282)" fill="white"/>
<circle id="Ellipse 4_4" cx="36.0001" cy="19.5668" r="6.46154" transform="rotate(-4.59401 36.0001 19.5668)" fill="white"/>
<circle id="Ellipse 5_4" cx="39.5598" cy="25.4545" r="6.46154" transform="rotate(-4.59401 39.5598 25.4545)" fill="white"/>
<circle id="Ellipse 6_4" cx="45.9623" cy="20.6184" r="6.46154" transform="rotate(-4.59401 45.9623 20.6184)" fill="white"/>
</g>
</g>
</svg>
