<svg id='stars'width="38" height="25" viewBox="0 0 38 25" fill="none" xmlns="http://www.w3.org/2000/svg">
<g id="stars">
<g id="Group 7">
<path id="Star 1" d="M6.07701 6.2308L6.32632 6.90457L7.00008 7.15388L6.32632 7.4032L6.07701 8.07696L5.82769 7.4032L5.15393 7.15388L5.82769 6.90457L6.07701 6.2308Z" fill="#DEE5F3"/>
<path id="Star 3" d="M17.1539 11.1539L17.4032 11.8276L18.077 12.0769L17.4032 12.3263L17.1539 13L16.9046 12.3263L16.2308 12.0769L16.9046 11.8276L17.1539 11.1539Z" fill="#DEE5F3"/>
<path id="Star 4" d="M8.53843 22.2308L8.78775 22.9045L9.46151 23.1539L8.78775 23.4032L8.53843 24.0769L8.28912 23.4032L7.61536 23.1539L8.28912 22.9045L8.53843 22.2308Z" fill="#DEE5F3"/>
<path id="Star 2" d="M11.6154 13L11.6985 13.2246L11.9231 13.3077L11.6985 13.3908L11.6154 13.6154L11.5323 13.3908L11.3077 13.3077L11.5323 13.2246L11.6154 13Z" fill="#DEE5F3"/>
<path id="Star 9" d="M6.69234 17.3077L6.77544 17.5323L7.00003 17.6154L6.77544 17.6985L6.69234 17.9231L6.60923 17.6985L6.38464 17.6154L6.60923 17.5323L6.69234 17.3077Z" fill="#DEE5F3"/>
<path id="Star 10" d="M13.6155 23.4616L13.7401 23.7985L14.077 23.9231L13.7401 24.0478L13.6155 24.3847L13.4908 24.0478L13.1539 23.9231L13.4908 23.7985L13.6155 23.4616Z" fill="#DEE5F3"/>
<g id="Star 11" filter="url(#filter0_f)">
<path d="M5.61547 11.1539L5.74013 11.4908L6.07701 11.6154L5.74013 11.7401L5.61547 12.0769L5.49081 11.7401L5.15393 11.6154L5.49081 11.4908L5.61547 11.1539Z" fill="#DEE5F3"/>
</g>
<path id="Star 5" d="M2.99995 20.3846L3.08306 20.6092L3.30765 20.6923L3.08306 20.7754L2.99995 21L2.91685 20.7754L2.69226 20.6923L2.91685 20.6092L2.99995 20.3846Z" fill="#DEE5F3"/>
<path id="Star 6" d="M18.3847 19.1539L18.4678 19.3785L18.6924 19.4616L18.4678 19.5447L18.3847 19.7693L18.3016 19.5447L18.077 19.4616L18.3016 19.3785L18.3847 19.1539Z" fill="#DEE5F3"/>
<path id="Star 7" d="M12.8463 3.15387L12.9294 3.37846L13.154 3.46156L12.9294 3.54467L12.8463 3.76925L12.7632 3.54467L12.5386 3.46156L12.7632 3.37846L12.8463 3.15387Z" fill="#DEE5F3"/>
<path id="Star 8" d="M0.538527 13L0.621632 13.2246L0.84622 13.3077L0.621632 13.3908L0.538527 13.6154L0.455422 13.3908L0.230835 13.3077L0.455422 13.2246L0.538527 13Z" fill="#DEE5F3"/>
</g>
<g id="Group 8">
<path id="Star 1_2" d="M22.077 0.0769958L22.3263 0.750758L23.0001 1.00007L22.3263 1.24939L22.077 1.92315L21.8277 1.24939L21.1539 1.00007L21.8277 0.750758L22.077 0.0769958Z" fill="#DEE5F3"/>
<path id="Star 3_2" d="M36.2308 6.23083L36.4801 6.9046L37.1539 7.15391L36.4801 7.40323L36.2308 8.07699L35.9815 7.40323L35.3077 7.15391L35.9815 6.9046L36.2308 6.23083Z" fill="#DEE5F3"/>
<path id="Star 4_2" d="M27.6155 20.3847L27.8648 21.0584L28.5385 21.3078L27.8648 21.5571L27.6155 22.2308L27.3661 21.5571L26.6924 21.3078L27.3661 21.0584L27.6155 20.3847Z" fill="#DEE5F3"/>
<path id="Star 2_2" d="M30.6923 8.077L30.7754 8.30158L31 8.38469L30.7754 8.46779L30.6923 8.69238L30.6092 8.46779L30.3846 8.38469L30.6092 8.30158L30.6923 8.077Z" fill="#DEE5F3"/>
<path id="Star 9_2" d="M28.2308 14.8462L28.3139 15.0708L28.5385 15.1539L28.3139 15.237L28.2308 15.4616L28.1477 15.237L27.9231 15.1539L28.1477 15.0708L28.2308 14.8462Z" fill="#DEE5F3"/>
<path id="Star 10_2" d="M31.4617 11.7693L31.5863 12.1062L31.9232 12.2309L31.5863 12.3555L31.4617 12.6924L31.337 12.3555L31.0001 12.2309L31.337 12.1062L31.4617 11.7693Z" fill="#DEE5F3"/>
<g id="Star 11_2" filter="url(#filter1_f)">
<path d="M24.6924 6.23083L24.817 6.56772L25.1539 6.69237L24.817 6.81703L24.6924 7.15391L24.5677 6.81703L24.2308 6.69237L24.5677 6.56772L24.6924 6.23083Z" fill="#DEE5F3"/>
</g>
<g id="Star 5_2" filter="url(#filter2_f)">
<path d="M22.077 14.8462L22.1601 15.0708L22.3847 15.1539L22.1601 15.237L22.077 15.4616L21.9939 15.237L21.7693 15.1539L21.9939 15.0708L22.077 14.8462Z" fill="#DEE5F3"/>
</g>
<path id="Star 6_2" d="M37.4615 14.2308L37.5446 14.4554L37.7692 14.5385L37.5446 14.6216L37.4615 14.8462L37.3784 14.6216L37.1538 14.5385L37.3784 14.4554L37.4615 14.2308Z" fill="#DEE5F3"/>
<path id="Star 7_2" d="M34.3847 1.92313L34.4678 2.14771L34.6924 2.23082L34.4678 2.31392L34.3847 2.53851L34.3016 2.31392L34.077 2.23082L34.3016 2.14771L34.3847 1.92313Z" fill="#DEE5F3"/>
<path id="Star 8_2" d="M19.6154 8.077L19.6985 8.30158L19.9231 8.38469L19.6985 8.46779L19.6154 8.69238L19.5323 8.46779L19.3077 8.38469L19.5323 8.30158L19.6154 8.077Z" fill="#DEE5F3"/>
</g>
</g>
<defs>
<filter id="filter0_f" x="4.89393" y="10.8939" width="1.4431" height="1.44307" filterUnits="userSpaceOnUse" color-interpolation-filters="sRGB">
<feFlood flood-opacity="0" result="BackgroundImageFix"/>
<feBlend mode="normal" in="SourceGraphic" in2="BackgroundImageFix" result="shape"/>
<feGaussianBlur stdDeviation="0.13" result="effect1_foregroundBlur"/>
</filter>
<filter id="filter1_f" x="23.9708" y="5.97083" width="1.4431" height="1.44307" filterUnits="userSpaceOnUse" color-interpolation-filters="sRGB">
<feFlood flood-opacity="0" result="BackgroundImageFix"/>
<feBlend mode="normal" in="SourceGraphic" in2="BackgroundImageFix" result="shape"/>
<feGaussianBlur stdDeviation="0.13" result="effect1_foregroundBlur"/>
</filter>
<filter id="filter2_f" x="21.5093" y="14.5862" width="1.13536" height="1.13539" filterUnits="userSpaceOnUse" color-interpolation-filters="sRGB">
<feFlood flood-opacity="0" result="BackgroundImageFix"/>
<feBlend mode="normal" in="SourceGraphic" in2="BackgroundImageFix" result="shape"/>
<feGaussianBlur stdDeviation="0.13" result="effect1_foregroundBlur"/>
</filter>
</defs>
</svg>
